<svg width="93" height="23" fill="none" xmlns="http://www.w3.org/2000/svg"><path d="M10.56 7.4a2.487 2.487 0 0 0-1.1-1.06c-.467-.253-1.02-.38-1.66-.38-1.107 0-1.993.367-2.66 1.1-.667.72-1 1.687-1 2.9 0 1.293.347 2.307 1.04 3.04.707.72 1.673 1.08 2.9 1.08.84 0 1.547-.213 2.12-.64.587-.427 1.013-1.04 1.28-1.84H7.14V9.08h7.44v3.18a6.632 6.632 0 0 1-1.3 2.38c-.6.733-1.367 1.327-2.3 1.78-.933.453-1.987.68-3.16.68-1.387 0-2.627-.3-3.72-.9a6.64 6.64 0 0 1-2.54-2.54c-.6-1.08-.9-2.313-.9-3.7s.3-2.62.9-3.7A6.463 6.463 0 0 1 4.1 3.72c1.08-.613 2.313-.92 3.7-.92 1.68 0 3.093.407 4.24 1.22 1.16.813 1.927 1.94 2.3 3.38h-3.78Zm10.994 9.76c-1.093 0-2.08-.233-2.96-.7a5.21 5.21 0 0 1-2.06-2c-.493-.867-.74-1.88-.74-3.04 0-1.147.254-2.153.76-3.02a5.138 5.138 0 0 1 2.08-2.02c.88-.467 1.867-.7 2.96-.7 1.094 0 2.08.233 2.96.7a5.139 5.139 0 0 1 2.08 2.02c.507.867.76 1.873.76 3.02s-.26 2.16-.78 3.04a5.144 5.144 0 0 1-2.1 2c-.88.467-1.866.7-2.96.7Zm0-2.96c.654 0 1.207-.24 1.66-.72.467-.48.7-1.167.7-2.06s-.226-1.58-.68-2.06c-.44-.48-.986-.72-1.64-.72-.666 0-1.22.24-1.66.72-.44.467-.66 1.153-.66 2.06 0 .893.214 1.58.64 2.06.44.48.987.72 1.64.72ZM39.31 2.96V5.7h-3.72V17h-3.42V5.7h-3.72V2.96h10.86Zm5.136 4.74c.4-.613.9-1.093 1.5-1.44.6-.36 1.267-.54 2-.54v3.62h-.94c-.853 0-1.493.187-1.92.56-.427.36-.64 1-.64 1.92V17h-3.42V5.84h3.42V7.7ZM51.3 4.68c-.6 0-1.093-.173-1.48-.52-.373-.36-.56-.8-.56-1.32 0-.533.187-.973.56-1.32.386-.36.88-.54 1.48-.54.587 0 1.067.18 1.44.54.386.347.58.787.58 1.32 0 .52-.194.96-.58 1.32-.373.347-.854.52-1.44.52ZM53 5.84V17h-3.42V5.84H53Zm12.998 5.4c0 .32-.02.653-.06 1h-7.74c.054.693.274 1.227.66 1.6.4.36.887.54 1.46.54.854 0 1.447-.36 1.78-1.08h3.64a4.932 4.932 0 0 1-1.02 1.98 4.964 4.964 0 0 1-1.82 1.38c-.733.333-1.553.5-2.46.5-1.093 0-2.066-.233-2.92-.7a4.979 4.979 0 0 1-2-2c-.48-.867-.72-1.88-.72-3.04 0-1.16.234-2.173.7-3.04a4.979 4.979 0 0 1 2-2c.854-.467 1.834-.7 2.94-.7 1.08 0 2.04.227 2.88.68.84.453 1.494 1.1 1.96 1.94.48.84.72 1.82.72 2.94Zm-3.5-.9c0-.587-.2-1.053-.6-1.4-.4-.347-.9-.52-1.5-.52-.573 0-1.06.167-1.46.5-.386.333-.626.807-.72 1.42h4.28Zm10.384 6.82c-1.093 0-2.08-.233-2.96-.7a5.21 5.21 0 0 1-2.06-2c-.493-.867-.74-1.88-.74-3.04 0-1.147.254-2.153.76-3.02a5.139 5.139 0 0 1 2.08-2.02c.88-.467 1.867-.7 2.96-.7 1.094 0 2.08.233 2.96.7a5.139 5.139 0 0 1 2.08 2.02c.507.867.76 1.873.76 3.02s-.26 2.16-.78 3.04a5.144 5.144 0 0 1-2.1 2c-.88.467-1.866.7-2.96.7Zm0-2.96c.654 0 1.207-.24 1.66-.72.467-.48.7-1.167.7-2.06s-.226-1.58-.68-2.06c-.44-.48-.986-.72-1.64-.72-.666 0-1.22.24-1.66.72-.44.467-.66 1.153-.66 2.06 0 .893.214 1.58.64 2.06.44.48.987.72 1.64.72Zm11.075-6.78c.333-.52.793-.94 1.38-1.26.587-.32 1.273-.48 2.06-.48.92 0 1.753.233 2.5.7.746.467 1.333 1.133 1.76 2 .44.867.66 1.873.66 3.02s-.22 2.16-.66 3.04c-.427.867-1.013 1.54-1.76 2.02a4.62 4.62 0 0 1-2.5.7c-.773 0-1.46-.16-2.06-.48-.587-.32-1.047-.733-1.38-1.24v6.88h-3.42V5.84h3.42v1.58Zm4.88 3.98c0-.853-.24-1.52-.72-2-.467-.493-1.047-.74-1.74-.74-.68 0-1.26.247-1.74.74-.467.493-.7 1.167-.7 2.02s.233 1.527.7 2.02c.48.493 1.06.74 1.74.74.68 0 1.26-.247 1.74-.74.48-.507.72-1.187.72-2.04Z" fill="#fff"/></svg>